<?xml version="1.0" standalone="no"?>
<!DOCTYPE svg PUBLIC "-//W3C//DTD SVG 20010904//EN"
 "http://www.w3.org/TR/2001/REC-SVG-20010904/DTD/svg10.dtd">
<svg version="1.0" xmlns="http://www.w3.org/2000/svg"
 width="250.000000pt" height="250.000000pt" viewBox="0 0 250.000000 250.000000"
 preserveAspectRatio="xMidYMid meet">
<metadata>
Created by potrace 1.10, written by Peter Selinger 2001-2011
</metadata>
<g transform="translate(0.000000,250.000000) scale(0.100000,-0.100000)"
fill="#000000" stroke="none">
<path d="M1115 2058 l-27 -32 46 -41 c53 -49 63 -79 45 -137 l-14 -42 -77 -13
c-185 -31 -305 -128 -358 -289 -23 -69 -24 -174 -2 -182 9 -3 10 3 2 23 -6 15
-8 30 -6 34 3 4 6 28 7 53 3 44 4 46 42 58 37 11 44 9 128 -31 49 -23 86 -46
82 -50 -5 -4 -36 -17 -70 -29 -35 -13 -63 -27 -63 -31 0 -5 30 3 68 17 37 14
75 28 85 31 11 4 39 -11 77 -41 33 -25 60 -40 60 -33 0 7 -25 29 -55 49 l-55
36 81 42 c92 47 74 50 193 -37 l58 -43 -36 -15 c-19 -8 -42 -15 -51 -15 -8 0
-15 -4 -15 -10 0 -15 20 -12 69 10 l44 21 27 -26 c14 -14 29 -23 33 -19 3 3
-6 16 -21 29 l-26 22 32 17 c17 9 56 36 86 61 l54 44 66 -67 c36 -37 66 -62
66 -56 0 6 -27 39 -61 73 l-61 61 41 46 c54 62 44 70 -11 11 l-43 -46 -76 62
-77 61 35 43 c20 24 31 43 26 43 -5 0 -24 -18 -42 -40 l-32 -39 -48 29 c-27
17 -63 35 -80 41 l-32 11 20 22 c32 34 25 44 -8 12 -23 -22 -33 -26 -47 -18
-30 15 -74 23 -74 13 0 -5 16 -12 36 -15 19 -4 34 -12 32 -18 -2 -6 -40 -33
-84 -60 l-80 -49 -54 31 c-57 31 -70 35 -70 23 1 -5 23 -19 50 -32 28 -13 50
-27 50 -30 0 -8 -147 -70 -190 -80 -19 -5 -43 -12 -53 -16 -14 -6 -16 -4 -10
11 9 25 55 97 68 106 5 4 6 8 2 8 -5 0 4 13 20 29 15 15 34 26 42 23 8 -3 12
-1 8 4 -5 8 44 46 63 49 3 1 21 8 41 17 20 9 68 21 107 28 40 7 72 17 72 22 0
12 186 4 202 -9 7 -6 33 -14 58 -18 25 -4 62 -16 82 -26 21 -11 44 -19 53 -19
9 0 13 -5 10 -11 -4 -6 -1 -9 7 -7 34 8 168 -137 152 -164 -4 -6 -3 -8 3 -5
13 8 23 -26 32 -110 4 -39 3 -59 -3 -56 -5 4 -7 -1 -3 -9 3 -9 0 -21 -6 -27
-8 -8 -7 -11 6 -11 40 0 35 133 -8 228 -50 112 -163 194 -313 229 -66 16 -72
19 -72 43 -1 36 -35 106 -76 157 -30 37 -123 103 -146 103 -3 0 -18 -14 -33
-32z m75 -10 c0 -4 6 -8 14 -8 7 0 30 -18 50 -40 20 -22 36 -37 36 -33 0 4 7
-3 16 -15 8 -12 12 -27 9 -32 -3 -6 -2 -10 3 -10 5 0 14 -12 20 -26 9 -18 9
-23 1 -18 -6 3 -4 -5 6 -19 9 -14 12 -27 8 -29 -4 -2 -42 -2 -84 0 l-77 3 5
58 c5 50 2 60 -21 88 -14 16 -23 33 -20 36 3 3 -3 4 -13 4 -13 -2 -18 5 -19
24 -1 22 3 25 33 25 18 0 33 -4 33 -8z m146 -443 c-22 -18 -63 -47 -91 -64
l-52 -31 -77 46 -77 46 58 35 c32 19 72 45 88 58 l30 23 80 -40 79 -40 -38
-33z m131 -40 c40 -31 73 -59 73 -64 0 -12 -97 -90 -136 -109 -32 -15 -32 -15
-103 41 -39 30 -77 58 -83 61 -11 5 -11 7 0 12 7 3 45 30 85 59 39 29 76 54
81 54 5 1 42 -24 83 -54z m-366 -16 c38 -23 69 -44 69 -48 0 -4 -35 -24 -78
-45 l-78 -38 -39 22 c-22 13 -65 33 -95 46 -44 19 -51 25 -34 29 11 4 54 22
95 40 40 19 78 35 82 35 5 0 40 -19 78 -41z"/>
<path d="M1695 1304 c-98 -27 -273 -37 -550 -31 -188 4 -291 11 -340 21 -38 9
-71 16 -72 16 -2 0 -3 -24 -3 -53 0 -100 22 -272 46 -367 47 -178 111 -260
266 -340 52 -27 101 -61 130 -92 l47 -49 43 44 c33 34 63 52 128 76 112 42
181 90 226 158 82 123 123 274 131 486 3 81 4 146 2 146 -2 -1 -26 -8 -54 -15z
m-475 -48 c173 0 333 3 355 6 123 20 137 21 145 8 12 -20 -1 -238 -16 -262 -3
-5 -7 -27 -9 -49 -5 -49 -54 -189 -66 -189 -5 0 -9 -6 -9 -14 0 -8 -15 -35
-34 -59 -19 -25 -31 -49 -28 -53 4 -4 2 -4 -5 0 -6 3 -18 -2 -25 -12 -13 -18
-140 -82 -163 -82 -14 0 -40 -13 -95 -48 -19 -12 -31 -22 -26 -22 6 0 1 -6 -9
-14 -18 -13 -22 -11 -42 17 -13 17 -23 27 -23 21 0 -5 -4 -4 -8 1 -8 13 -76
61 -79 57 -8 -7 -23 0 -18 9 4 6 1 9 -6 7 -28 -5 -147 89 -194 153 -20 28 -35
71 -29 82 4 7 3 8 -2 4 -12 -11 -64 184 -63 237 0 12 -3 60 -7 108 -9 118 -10
117 73 105 37 -6 210 -10 383 -11z"/>
<path d="M1621 993 c-7 -42 -16 -83 -20 -92 -47 -101 -71 -142 -100 -174 -42
-47 -103 -90 -153 -108 -21 -7 -38 -17 -38 -21 0 -14 21 -8 79 22 51 27 107
74 153 129 42 50 90 174 103 269 11 82 -10 61 -24 -25z"/>
</g>
</svg>
