<svg xmlns="http://www.w3.org/2000/svg" width="1000" height="707" viewBox="0 0 1000 707" version="1.1">
	<path d="M 267.750 26.772 C 265.688 28.146, 264 29.591, 264 29.984 C 264 30.658, 272.155 34.247, 272.532 33.739 C 272.630 33.608, 272.438 31.424, 272.105 28.887 L 271.500 24.274 267.750 26.772 M 117.250 29.166 L 113 30.118 116.241 34.151 L 119.482 38.184 120.618 35.342 C 122.599 30.380, 123.159 27.997, 122.317 28.107 C 121.868 28.166, 119.588 28.642, 117.250 29.166 M 901.661 35.482 C 900.747 38.163, 900 40.506, 900 40.690 C 900 41.269, 908.464 39.777, 909.265 39.057 C 909.686 38.678, 908.521 36.623, 906.676 34.488 L 903.322 30.608 901.661 35.482 M 63.117 40.451 C 62.502 42.890, 62 45.092, 62 45.345 C 62 45.822, 71.053 43.280, 71.716 42.617 C 71.923 42.410, 70.324 40.841, 68.163 39.129 L 64.233 36.017 63.117 40.451 M 156.577 40.750 C 157.460 42.813, 158.413 45.061, 158.697 45.748 C 159.012 46.511, 160.483 45.346, 162.487 42.748 L 165.762 38.500 163.131 37.868 C 161.684 37.521, 159.256 37.183, 157.737 37.118 L 154.973 37 156.577 40.750 M 530.591 42 C 530.928 42.825, 531.653 44.737, 532.200 46.250 C 532.748 47.763, 533.548 49, 533.979 49 C 534.744 49, 540 42.596, 540 41.663 C 540 41.405, 537.745 41.037, 534.988 40.847 C 530.845 40.560, 530.083 40.760, 530.591 42 M 693.076 42.250 C 693.118 42.938, 693.688 44.979, 694.344 46.787 L 695.535 50.075 698.843 46.662 L 702.152 43.248 698.927 42.124 C 694.738 40.664, 692.982 40.702, 693.076 42.250 M 599.097 45.878 L 595.694 48.698 598.597 49.747 C 600.194 50.323, 602.316 51.126, 603.314 51.529 C 604.923 52.180, 605.092 51.778, 604.814 47.959 C 604.641 45.592, 604.050 43.521, 603.500 43.356 C 602.950 43.192, 600.969 44.326, 599.097 45.878 M 841.594 52.873 L 837.689 54.598 841.557 57.786 C 843.685 59.540, 845.723 60.643, 846.086 60.237 C 846.450 59.832, 846.986 57.587, 847.279 55.250 C 847.880 50.438, 847.484 50.272, 841.594 52.873 M 213 53.256 C 213 53.525, 213.961 55.918, 215.135 58.572 L 217.270 63.399 219.684 60.450 C 224.324 54.781, 224.457 54.002, 220.785 53.986 C 218.978 53.979, 216.488 53.701, 215.250 53.370 C 214.012 53.038, 213 52.987, 213 53.256 M 438.198 84.296 C 436.439 86.110, 435 87.890, 435 88.251 C 435 88.912, 441.527 90.984, 443.644 90.994 C 444.484 90.999, 444.514 89.874, 443.755 86.750 C 443.188 84.412, 442.425 82.162, 442.060 81.748 C 441.695 81.334, 439.957 82.481, 438.198 84.296 M 166.173 88.218 C 165.584 90.537, 165.249 92.583, 165.429 92.763 C 165.609 92.943, 167.866 92.559, 170.444 91.910 L 175.130 90.730 171.869 87.365 C 170.075 85.514, 168.301 84, 167.925 84 C 167.550 84, 166.762 85.898, 166.173 88.218 M 885.110 91.650 L 880.720 94.280 884.610 96.635 C 886.749 97.930, 888.837 98.992, 889.250 98.995 C 889.663 98.998, 890 96.750, 890 94 C 890 91.250, 889.888 89.004, 889.750 89.009 C 889.612 89.015, 887.524 90.203, 885.110 91.650 M 795 91.480 C 795 92.838, 798.320 100, 798.949 100 C 799.351 100, 800.877 98.318, 802.340 96.263 C 804.755 92.868, 804.839 92.462, 803.249 91.833 C 801.230 91.034, 795 90.767, 795 91.480 M 325.085 95.631 C 323.384 101.760, 323.487 101.941, 327.934 100.628 C 330.097 99.989, 332.115 99.218, 332.419 98.915 C 332.722 98.611, 331.438 96.878, 329.565 95.063 L 326.160 91.762 325.085 95.631 M 563 95.681 C 563 96.938, 566.387 104, 566.990 104 C 567.415 104, 568.967 102.421, 570.439 100.491 C 572.355 97.980, 572.744 96.862, 571.808 96.559 C 570.145 96.022, 563 95.309, 563 95.681 M 701.258 99.717 C 700.656 102.346, 700.314 104.647, 700.497 104.831 C 700.681 105.014, 702.920 104.565, 705.475 103.832 L 710.118 102.500 706.235 98.719 L 702.351 94.937 701.258 99.717 M 948 98.492 C 948 99.903, 951.415 108, 952.010 108 C 952.462 108, 954.201 106.272, 955.874 104.160 L 958.915 100.319 953.458 99.330 C 950.456 98.786, 948 98.409, 948 98.492 M 381.716 102.134 C 379.635 103.206, 378.201 104.517, 378.530 105.048 C 379.333 106.349, 385.065 109.268, 385.656 108.678 C 385.914 108.420, 385.985 106.403, 385.813 104.197 L 385.500 100.186 381.716 102.134 M 231.750 105.068 C 229.688 106.157, 228 107.202, 228 107.391 C 228 107.580, 229.758 108.898, 231.907 110.320 L 235.813 112.905 236.157 107.952 C 236.346 105.228, 236.275 103.019, 236 103.044 C 235.725 103.068, 233.813 103.979, 231.750 105.068 M 283.041 119.595 C 284.187 122.270, 285.247 124.580, 285.395 124.728 C 285.542 124.876, 287.117 122.972, 288.894 120.498 C 291.642 116.672, 291.854 115.998, 290.312 115.989 C 289.315 115.983, 286.803 115.697, 284.728 115.355 L 280.956 114.731 283.041 119.595 M 105 117.910 C 105 118.389, 105.840 120.658, 106.867 122.952 L 108.735 127.123 111.988 123.015 C 113.777 120.756, 115.074 118.767, 114.871 118.595 C 113.889 117.765, 105 117.149, 105 117.910 M 726 127.388 C 726 128.687, 726.276 131.129, 726.613 132.814 L 727.226 135.879 731.113 133.307 C 733.251 131.892, 735 130.434, 735 130.066 C 735 129.699, 732.975 128.415, 730.500 127.212 L 726 125.026 726 127.388 M 513.894 136.012 C 514.882 138.218, 515.930 140.264, 516.224 140.558 C 516.518 140.852, 518.163 139.320, 519.879 137.153 C 523.406 132.700, 522.874 132, 515.967 132 L 512.098 132 513.894 136.012 M 615.015 135.786 C 615.041 141.940, 616.118 142.612, 620.891 139.453 C 623.173 137.943, 624.910 136.576, 624.750 136.417 C 624.590 136.257, 622.331 135.213, 619.730 134.098 L 615 132.071 615.015 135.786 M 472 134.266 C 472 134.530, 472.957 136.910, 474.127 139.555 L 476.255 144.364 479.100 140.932 C 482.893 136.359, 482.774 135, 478.582 135 C 476.702 135, 474.452 134.727, 473.582 134.393 C 472.712 134.059, 472 134.002, 472 134.266 M 838.035 138.464 L 834.678 141.927 837.089 142.817 C 842.293 144.738, 845 145.064, 844.994 143.769 C 844.984 141.395, 842.909 135, 842.149 135 C 841.733 135, 839.882 136.559, 838.035 138.464 M 152.500 139.737 C 151.400 140.014, 149.415 140.653, 148.089 141.157 L 145.678 142.073 149.035 145.536 C 150.882 147.441, 152.701 149, 153.077 149 C 153.647 149, 156 141.396, 156 139.557 C 156 138.950, 155.520 138.975, 152.500 139.737 M 777 149.987 C 777 152.744, 777.346 155, 777.768 155 C 779.522 155, 786.127 149.728, 785.348 148.950 C 784.881 148.485, 782.813 147.400, 780.750 146.539 L 777 144.973 777 149.987 M 927.091 164.294 C 926.500 165.831, 925.744 168.172, 925.411 169.497 C 924.834 171.796, 924.982 171.879, 928.653 171.317 C 934.980 170.349, 935.222 169.859, 931.533 165.488 L 928.166 161.500 927.091 164.294 M 284.750 167.117 C 282.688 168.179, 281 169.225, 281 169.442 C 281 170.076, 287.640 174, 288.713 174 C 289.624 174, 289.796 166.450, 288.904 165.581 C 288.682 165.365, 286.813 166.056, 284.750 167.117 M 873.396 166.576 C 873.805 167.634, 874.390 169.738, 874.695 171.250 C 875 172.762, 875.555 174, 875.929 174 C 876.302 174, 878.080 172.481, 879.879 170.625 L 883.149 167.251 879.504 166.567 C 877.499 166.191, 875.137 165.606, 874.255 165.268 C 873.001 164.786, 872.814 165.070, 873.396 166.576 M 59.625 170.125 C 58.499 175.753, 58.624 175.940, 62.750 174.826 C 68.163 173.365, 68.495 172.594, 64.984 169.640 C 60.976 166.268, 60.386 166.321, 59.625 170.125 M 378.192 178.008 L 380.377 183.265 382.738 180.383 C 387.032 175.140, 387.375 174, 384.660 174 C 383.335 174, 380.845 173.719, 379.129 173.376 L 376.008 172.752 378.192 178.008 M 726.587 179.633 L 722.674 182.293 727.087 184.557 C 732.016 187.085, 732.517 186.625, 731.281 180.709 L 730.500 176.973 726.587 179.633 M 182.069 184.319 C 181.490 185.842, 180.731 188.224, 180.382 189.613 C 179.767 192.066, 179.859 192.118, 183.624 191.441 C 189.909 190.310, 190.123 189.866, 186.468 185.525 L 183.122 181.549 182.069 184.319 M 573.779 186.868 L 571.058 187.500 574.446 191.500 L 577.834 195.500 578.784 193 C 581.266 186.462, 581.269 185.993, 578.817 186.118 C 577.543 186.183, 575.276 186.521, 573.779 186.868 M 227.843 194.312 L 224.185 196.562 228.041 198.781 C 230.161 200.001, 232.145 201, 232.448 201 C 232.752 201, 233 198.975, 233 196.500 C 233 194.025, 232.662 192.014, 232.250 192.031 C 231.838 192.048, 229.854 193.075, 227.843 194.312 M 521.256 197.722 C 520.655 200.348, 520.279 202.612, 520.420 202.753 C 520.784 203.117, 527.349 200.861, 528.252 200.062 C 528.666 199.696, 527.507 197.945, 525.677 196.171 L 522.349 192.946 521.256 197.722 M 613.045 194.797 C 613.070 195.184, 614.118 197.464, 615.374 199.865 L 617.658 204.230 620.816 199.935 C 622.553 197.573, 623.868 195.560, 623.737 195.461 C 622.922 194.841, 613.008 194.225, 613.045 194.797 M 82.089 209.097 C 81.414 211.351, 81.087 213.421, 81.363 213.697 C 82.060 214.394, 90.007 212.977, 89.971 212.162 C 89.939 211.452, 84.266 205, 83.672 205 C 83.477 205, 82.764 206.844, 82.089 209.097 M 673 206.891 C 673 207.381, 673.840 209.659, 674.868 211.953 L 676.735 216.125 679.913 211.812 L 683.091 207.500 680.296 206.868 C 675.999 205.897, 673 205.907, 673 206.891 M 324.007 213.473 C 323.302 215.995, 322.913 218.246, 323.144 218.478 C 323.769 219.102, 332 216.869, 332 216.075 C 332 215.699, 330.490 213.929, 328.645 212.141 L 325.291 208.890 324.007 213.473 M 140.633 214.663 C 140.281 217.228, 140.193 219.526, 140.436 219.769 C 140.679 220.013, 142.996 219.403, 145.583 218.415 L 150.288 216.618 146.394 213.324 C 144.252 211.512, 142.224 210.023, 141.886 210.015 C 141.548 210.007, 140.984 212.099, 140.633 214.663 M 382.750 224.733 C 380.688 225.579, 379.016 226.548, 379.036 226.886 C 379.056 227.224, 380.731 228.758, 382.757 230.296 C 386.129 232.856, 386.501 232.941, 387.150 231.296 C 388.111 228.864, 388.182 222.976, 387.250 223.097 C 386.837 223.151, 384.813 223.887, 382.750 224.733 M 897.015 237.485 C 895.157 239.402, 893.831 241.121, 894.068 241.305 C 895.032 242.052, 903.226 244.108, 903.629 243.704 C 904.219 243.114, 901.739 234, 900.989 234 C 900.661 234, 898.872 235.568, 897.015 237.485 M 625.344 241.131 C 624.334 246.061, 624.353 246.128, 626.615 245.560 C 630.007 244.709, 634 243.113, 634 242.609 C 634 242.366, 632.283 240.808, 630.185 239.146 L 626.369 236.125 625.344 241.131 M 784.091 248.552 C 783.442 251.132, 783.117 253.450, 783.370 253.704 C 783.624 253.957, 785.920 253.565, 788.475 252.832 L 793.118 251.500 789.195 247.680 L 785.273 243.860 784.091 248.552 M 841.110 254.650 L 836.720 257.280 840.610 259.635 C 842.749 260.930, 844.837 261.992, 845.250 261.995 C 845.663 261.998, 846 259.750, 846 257 C 846 254.250, 845.888 252.004, 845.750 252.009 C 845.612 252.015, 843.524 253.203, 841.110 254.650 M 691.250 257.315 C 688.913 258.458, 687.006 259.643, 687.012 259.947 C 687.025 260.513, 693.607 265, 694.425 265 C 694.996 265, 696.372 256.026, 695.870 255.571 C 695.667 255.386, 693.587 256.171, 691.250 257.315 M 425.753 263.358 C 423.692 264.536, 422.004 265.828, 422.003 266.230 C 422.001 266.631, 423.800 267.878, 426 269 L 430 271.041 430 266.020 C 430 263.259, 429.887 261.049, 429.750 261.108 C 429.613 261.168, 427.814 262.181, 425.753 263.358 M 105 263.391 C 105 263.606, 105.840 265.658, 106.867 267.952 L 108.735 272.123 111.860 268.176 C 114.974 264.245, 114.977 264.227, 112.743 263.628 C 110.221 262.952, 105 262.792, 105 263.391 M 336.992 267.231 C 338.034 269.558, 339.249 271.573, 339.693 271.708 C 340.137 271.843, 341.730 270.215, 343.234 268.089 L 345.968 264.225 343.734 263.626 C 342.505 263.297, 340.060 263.021, 338.299 263.014 L 335.098 263 336.992 267.231 M 242.090 271.556 C 241.441 274.134, 241.111 276.445, 241.358 276.691 C 241.972 277.305, 250 274.841, 250 274.038 C 250 273.683, 248.486 271.925, 246.635 270.131 L 243.270 266.870 242.090 271.556 M 741 268.480 C 741 269.739, 744.295 276.997, 744.859 276.979 C 745.211 276.967, 746.733 275.213, 748.241 273.082 C 750.563 269.798, 750.741 269.115, 749.409 268.603 C 747.542 267.887, 741 267.791, 741 268.480 M 489.432 272.585 C 490.350 276.245, 491.899 280, 492.489 280 C 493.188 280, 498.932 273.692, 498.971 272.883 C 498.987 272.543, 496.716 271.813, 493.924 271.261 C 488.909 270.270, 488.855 270.286, 489.432 272.585 M 563.495 276.750 C 563.885 277.712, 564.653 279.738, 565.200 281.250 C 565.748 282.762, 566.542 284, 566.965 284 C 568.116 284, 572.980 276.314, 572.275 275.609 C 571.941 275.274, 569.669 275, 567.226 275 C 563.394 275, 562.883 275.240, 563.495 276.750 M 933.186 291.750 C 934.326 294.363, 935.372 296.633, 935.509 296.796 C 935.647 296.959, 937.183 295.159, 938.923 292.796 L 942.086 288.500 938.293 287.808 C 930.831 286.446, 930.861 286.423, 933.186 291.750 M 608.635 297.786 L 603.771 299.181 607.600 303.102 L 611.429 307.024 612.770 302.427 C 613.507 299.899, 613.973 297.506, 613.805 297.111 C 613.637 296.715, 611.311 297.019, 608.635 297.786 M 267 302.051 C 267 304.773, 267.346 307, 267.768 307 C 269.493 307, 276.132 301.736, 275.348 300.990 C 274.881 300.548, 272.813 299.492, 270.750 298.644 L 267 297.102 267 302.051 M 55.894 303.012 C 56.882 305.218, 57.939 307.273, 58.244 307.577 C 59.135 308.468, 64.237 301.192, 63.527 300.043 C 63.172 299.469, 60.906 299, 58.490 299 L 54.098 299 55.894 303.012 M 157 303.428 C 157 305.877, 157.447 308.158, 157.994 308.496 C 159.306 309.307, 166.326 303.925, 165.296 302.898 C 164.858 302.462, 162.813 301.400, 160.750 300.539 L 157 298.973 157 303.428 M 379.066 310.432 L 375.740 313.864 380.620 315.308 C 383.304 316.103, 385.633 316.638, 385.795 316.498 C 386.347 316.021, 383.766 307, 383.077 307 C 382.701 307, 380.896 308.544, 379.066 310.432 M 317.660 321.750 C 318.002 324.363, 318.351 326.595, 318.435 326.711 C 318.519 326.826, 320.540 325.628, 322.927 324.049 L 327.266 321.176 323.173 319.088 C 317.344 316.114, 316.947 316.306, 317.660 321.750 M 744.153 319.630 L 739.805 322.229 744.046 324.638 C 746.378 325.963, 748.474 326.860, 748.702 326.631 C 748.931 326.402, 748.979 324.149, 748.809 321.623 L 748.500 317.031 744.153 319.630 M 518.652 324.754 C 517.718 326.266, 516.795 333, 517.523 333 C 519.342 333, 526 330.613, 526 329.960 C 526 328.773, 519.163 323.928, 518.652 324.754 M 836 326.480 C 836 327.838, 839.320 335, 839.949 335 C 840.351 335, 841.877 333.318, 843.340 331.263 C 845.755 327.868, 845.839 327.462, 844.249 326.833 C 842.230 326.034, 836 325.767, 836 326.480 M 466.789 338.714 C 465.857 341.306, 465.185 343.472, 465.297 343.526 C 465.409 343.581, 467.857 343.226, 470.737 342.738 L 475.975 341.851 472.820 337.926 C 471.085 335.767, 469.400 334, 469.075 334 C 468.750 334, 467.721 336.121, 466.789 338.714 M 640.644 338.931 C 639.740 341.191, 639 343.423, 639 343.891 C 639 344.745, 647.870 343.463, 648.868 342.466 C 649.161 342.173, 647.800 340.333, 645.844 338.378 L 642.288 334.822 640.644 338.931 M 414.015 337.750 C 414.024 338.163, 414.604 340.416, 415.304 342.758 L 416.578 347.017 420.359 343.145 L 424.140 339.273 419.627 338.136 C 414.293 336.793, 413.995 336.773, 414.015 337.750 M 687.630 346.649 L 683.760 349.181 687.630 351.559 C 689.758 352.867, 691.837 353.952, 692.250 353.969 C 692.663 353.986, 693 351.750, 693 349 C 693 346.250, 692.663 344.026, 692.250 344.059 C 691.837 344.091, 689.758 345.257, 687.630 346.649 M 267.787 350.930 C 265.745 352.343, 264.058 353.769, 264.037 354.098 C 263.991 354.847, 271.895 358.461, 272.365 357.906 C 272.555 357.683, 272.438 355.443, 272.105 352.930 L 271.500 348.359 267.787 350.930 M 115.724 353.868 L 112.947 354.500 116.175 358.406 L 119.402 362.311 121.127 358.406 C 122.075 356.257, 122.885 354.163, 122.926 353.750 C 123.011 352.892, 119.783 352.945, 115.724 353.868 M 63.090 364.556 C 62.441 367.134, 62.082 369.416, 62.293 369.626 C 62.750 370.083, 69.178 368.012, 70.252 367.062 C 70.666 366.696, 69.489 364.928, 67.637 363.133 L 64.270 359.870 63.090 364.556 M 155.045 361.625 C 155.070 362.106, 156.103 364.435, 157.340 366.799 L 159.591 371.098 162.857 366.549 L 166.124 362 163.687 362 C 162.347 362, 159.844 361.719, 158.125 361.375 C 156.406 361.031, 155.020 361.144, 155.045 361.625 M 783.174 366.638 C 782.493 369.185, 782.067 371.400, 782.227 371.560 C 782.719 372.052, 791 369.626, 791 368.990 C 791 368.661, 789.518 366.956, 787.706 365.200 L 784.413 362.008 783.174 366.638 M 539.858 367.524 L 538.231 372.047 541.865 371.395 C 548.065 370.283, 548.465 369.706, 545.487 366.168 C 544.022 364.425, 542.521 363, 542.153 363 C 541.785 363, 540.752 365.036, 539.858 367.524 M 598.986 370.750 C 598.979 372.262, 598.696 374.532, 598.358 375.793 L 597.744 378.086 602.122 376.393 C 608.338 373.988, 608.499 373.618, 604.613 370.654 C 600.203 367.291, 599.003 367.311, 598.986 370.750 M 843.333 376.806 C 841.041 377.738, 838.904 378.762, 838.583 379.083 C 838.263 379.404, 839.805 381.116, 842.011 382.888 C 844.770 385.106, 846.147 385.703, 846.427 384.805 C 846.986 383.009, 848.085 374.987, 847.762 375.056 C 847.618 375.087, 845.625 375.874, 843.333 376.806 M 214.894 382.012 C 215.882 384.218, 216.930 386.264, 217.224 386.558 C 217.518 386.852, 219.163 385.320, 220.879 383.153 C 224.406 378.700, 223.874 378, 216.967 378 L 213.098 378 214.894 382.012 M 438.031 409.468 C 435.600 411.976, 435.062 413.059, 436.085 413.380 C 436.863 413.624, 439.035 414.316, 440.912 414.916 C 442.789 415.517, 444.440 415.894, 444.580 415.753 C 445.077 415.256, 442.654 406, 442.028 406 C 441.678 406, 439.880 407.561, 438.031 409.468 M 166.509 411.232 C 166.147 413.029, 165.641 415.249, 165.385 416.164 C 164.959 417.689, 165.314 417.710, 169.630 416.411 C 172.220 415.631, 174.509 414.824, 174.716 414.617 C 174.923 414.410, 173.309 412.829, 171.130 411.103 L 167.167 407.964 166.509 411.232 M 884.628 416.442 L 880.756 418.821 884.858 421.411 C 887.114 422.835, 889.194 424, 889.480 424 C 889.766 424, 890 421.750, 890 419 C 890 416.250, 889.663 414.014, 889.250 414.031 C 888.837 414.048, 886.758 415.133, 884.628 416.442 M 795 415.862 C 795 417.022, 798.499 424.993, 799 424.975 C 799.709 424.950, 805.290 416.946, 804.857 416.574 C 804.112 415.932, 795 415.274, 795 415.862 M 324.759 420.640 C 323.978 423.313, 323.376 425.576, 323.421 425.668 C 323.653 426.145, 333 423.568, 333 423.028 C 333 422.678, 331.465 420.905, 329.589 419.086 L 326.178 415.780 324.759 420.640 M 563.121 420.598 C 563.335 421.094, 564.161 423.188, 564.956 425.250 C 565.751 427.313, 566.702 429, 567.068 429 C 567.434 429, 568.925 427.200, 570.381 425 C 572.800 421.346, 572.865 421, 571.139 421 C 570.100 421, 567.783 420.707, 565.991 420.348 C 564.170 419.984, 562.904 420.094, 563.121 420.598 M 701.174 424.638 C 700.493 427.185, 700.067 429.400, 700.227 429.560 C 700.719 430.052, 709 427.626, 709 426.990 C 709 426.661, 707.518 424.956, 705.706 423.200 L 702.413 420.008 701.174 424.638 M 949.777 427.983 L 951.390 433.025 955.213 429.292 C 959.422 425.182, 959.303 424.981, 951.832 423.612 L 948.165 422.940 949.777 427.983 M 381.760 426.294 C 379.703 427.507, 378.019 428.725, 378.017 429 C 378.016 429.275, 379.812 430.526, 382.008 431.780 L 386 434.060 386 429.030 C 386 426.263, 385.887 424.020, 385.750 424.044 C 385.613 424.069, 383.817 425.081, 381.760 426.294 M 231.064 429.410 L 226.628 431.730 229.064 433.021 C 230.404 433.731, 232.468 434.939, 233.650 435.705 C 235.739 437.060, 235.810 436.956, 236.150 432.049 C 236.343 429.271, 236.275 427.019, 236 427.045 C 235.725 427.070, 233.504 428.134, 231.064 429.410 M 282.452 442.538 C 285.389 449.568, 285.405 449.574, 288.830 444.916 C 290.560 442.565, 291.868 440.560, 291.737 440.461 C 291.607 440.361, 289.140 440.014, 286.257 439.688 L 281.013 439.096 282.452 442.538 M 104.999 441.967 C 105.001 443.228, 108.352 450.997, 108.886 450.979 C 109.531 450.956, 115 443.539, 115 442.687 C 115 442.415, 112.750 442.037, 109.999 441.847 C 107.249 441.656, 104.999 441.710, 104.999 441.967 M 726.070 453.250 C 726.109 455.038, 726.452 457.287, 726.833 458.249 C 727.462 459.839, 727.868 459.755, 731.263 457.340 C 733.318 455.877, 735 454.351, 735 453.949 C 735 453.320, 727.838 450, 726.480 450 C 726.216 450, 726.032 451.462, 726.070 453.250 M 514.186 460.750 C 515.326 463.363, 516.350 465.612, 516.461 465.748 C 516.572 465.885, 518.076 464.029, 519.803 461.625 L 522.943 457.252 519.221 456.637 C 511.864 455.421, 511.861 455.424, 514.186 460.750 M 615 458.388 C 615 459.687, 615.276 462.129, 615.613 463.814 L 616.226 466.879 620.113 464.307 C 622.251 462.892, 624 461.434, 624 461.066 C 624 460.699, 621.975 459.415, 619.500 458.212 L 615 456.026 615 458.388 M 473.644 462.750 C 475.923 468.295, 476.427 468.440, 479.480 464.438 C 482.709 460.204, 481.919 459.041, 475.801 459.015 L 472.102 459 473.644 462.750 M 838.680 462.805 L 834.860 466.727 839.552 467.909 C 842.132 468.558, 844.450 468.883, 844.704 468.630 C 844.957 468.376, 844.565 466.080, 843.832 463.525 L 842.500 458.882 838.680 462.805 M 150.615 464.701 L 145.730 466.139 149.604 470.107 L 153.478 474.074 154.719 469.287 C 155.401 466.654, 155.856 464.221, 155.730 463.881 C 155.603 463.541, 153.302 463.909, 150.615 464.701 M 777 474.013 C 777 479.834, 777.984 480.204, 782.809 476.201 L 786.118 473.456 781.559 471.241 L 777 469.026 777 474.013 M 22.278 472.250 C 21.746 472.938, 21.019 474.316, 20.662 475.313 C 19.863 477.549, 18 476.589, 18 473.941 C 18 472.873, 17.550 472, 17 472 C 16.450 472, 16 473.350, 16 475 C 16 476.923, 16.509 478, 17.418 478 C 18.198 478, 19.446 478.234, 20.191 478.520 C 21.040 478.846, 21.986 477.874, 22.724 475.920 C 24.121 472.220, 26.518 472.494, 26.461 476.348 C 26.417 479.261, 27.716 479.903, 28.663 477.436 C 30.229 473.355, 24.821 468.963, 22.278 472.250 M 17.571 482.571 C 15.729 484.414, 15.629 485.438, 17.035 488.066 C 18.945 491.635, 23.213 490.111, 24.223 485.500 C 24.616 483.702, 24.795 483.778, 25.991 486.250 C 27.539 489.450, 29.056 489.930, 28.283 486.976 C 27.630 484.477, 23.355 481, 20.937 481 C 19.950 481, 18.436 481.707, 17.571 482.571 M 19.104 483.914 C 17.429 484.975, 18.437 488.352, 20.251 487.755 C 21.641 487.297, 22.613 482.991, 21.320 483.015 C 20.869 483.024, 19.872 483.428, 19.104 483.914 M 927.035 488.409 C 926.474 489.882, 925.726 492.243, 925.372 493.655 C 924.735 496.191, 924.780 496.213, 929.114 495.508 C 931.526 495.115, 933.800 494.503, 934.166 494.147 C 934.532 493.791, 933.306 491.751, 931.442 489.614 L 928.054 485.729 927.035 488.409 M 284.750 491.220 C 282.688 492.415, 281 493.671, 281 494.011 C 281 494.514, 284.327 496.448, 289.250 498.807 C 289.663 499.005, 290 496.879, 290 494.083 C 290 491.288, 289.663 489.010, 289.250 489.023 C 288.837 489.036, 286.813 490.024, 284.750 491.220 M 873.356 490.486 C 873.646 491.241, 874.184 493.465, 874.553 495.429 C 874.921 497.393, 875.534 499, 875.915 499 C 876.296 499, 878.120 497.439, 879.969 495.532 C 883.582 491.804, 883.660 491.931, 876.665 490.112 C 873.540 489.299, 872.927 489.368, 873.356 490.486 M 59.625 494.125 C 58.334 500.581, 58.420 500.634, 65.794 497.875 C 68.076 497.021, 68.070 497, 64.662 494.008 C 62.778 492.354, 61.014 491, 60.743 491 C 60.472 491, 59.969 492.406, 59.625 494.125 M 22.011 493.487 C 21.332 494.305, 21.037 495.655, 21.357 496.487 C 22.342 499.054, 20.027 498.154, 18.818 495.500 C 17.409 492.408, 15.757 492.168, 16.885 495.219 C 18.934 500.758, 27.003 502.716, 28.489 498.035 C 29.904 493.575, 24.870 490.041, 22.011 493.487 M 23.688 494.646 C 22.216 496.117, 22.990 499.149, 24.750 498.810 C 25.712 498.624, 26.500 497.616, 26.500 496.570 C 26.500 494.580, 24.869 493.464, 23.688 494.646 M 377.042 498.951 C 377.065 499.803, 377.889 502.011, 378.873 503.857 L 380.662 507.214 383.915 503.108 C 387.438 498.659, 387.291 498.410, 380.750 497.769 C 377.860 497.486, 377.010 497.757, 377.042 498.951 M 727.203 503.487 C 725.390 504.737, 723.659 506.008, 723.356 506.310 C 723.054 506.613, 724.693 507.823, 727 509 C 729.307 510.177, 731.428 510.905, 731.714 510.619 C 732 510.333, 731.844 508.100, 731.367 505.656 L 730.500 501.213 727.203 503.487 M 22.583 503.866 C 22.289 504.342, 20.933 504.519, 19.570 504.258 C 17.538 503.870, 16.971 504.266, 16.419 506.465 C 16.028 508.025, 16.218 509.618, 16.873 510.273 C 17.709 511.109, 18 510.703, 18 508.700 C 18 506.967, 18.537 506, 19.500 506 C 20.325 506, 21 506.675, 21 507.500 C 21 509.747, 22.687 509.307, 23.317 506.895 C 24.081 503.976, 26.509 505.098, 26.461 508.348 C 26.417 511.261, 27.716 511.903, 28.663 509.436 C 30.088 505.721, 24.564 500.660, 22.583 503.866 M 181.991 508.523 C 181.455 509.934, 180.729 512.230, 180.379 513.625 C 179.747 516.146, 179.772 516.157, 184.621 515.452 C 187.305 515.063, 189.676 514.588, 189.890 514.398 C 190.105 514.208, 188.635 512.231, 186.624 510.005 L 182.967 505.957 181.991 508.523 M 576 510.721 C 571.907 511.455, 571.663 512.592, 574.838 516.137 L 577.850 519.500 578.792 517 C 581.603 509.533, 581.678 509.702, 576 510.721 M 17.571 514.571 C 15.729 516.414, 15.629 517.438, 17.035 520.066 C 18.945 523.635, 23.213 522.111, 24.223 517.500 C 24.616 515.702, 24.795 515.778, 25.991 518.250 C 27.539 521.450, 29.056 521.930, 28.283 518.976 C 27.630 516.477, 23.355 513, 20.937 513 C 19.950 513, 18.436 513.707, 17.571 514.571 M 19.104 515.914 C 17.429 516.975, 18.437 520.352, 20.251 519.755 C 21.641 519.297, 22.613 514.991, 21.320 515.015 C 20.869 515.024, 19.872 515.428, 19.104 515.914 M 228.580 518.380 L 224.660 520.756 228.580 523.248 L 232.500 525.741 232.816 523.371 C 232.990 522.067, 232.990 519.876, 232.816 518.502 L 232.500 516.005 228.580 518.380 M 521.258 521.717 C 520.656 524.346, 520.304 526.638, 520.476 526.810 C 520.648 526.981, 522.867 526.516, 525.406 525.776 L 530.024 524.429 526.188 520.683 L 522.351 516.937 521.258 521.717 M 614.894 523.012 C 615.882 525.218, 616.939 527.273, 617.244 527.577 C 618.135 528.468, 623.237 521.192, 622.527 520.043 C 622.172 519.469, 619.906 519, 617.490 519 L 613.098 519 614.894 523.012 M 17.655 525.829 C 15.534 528.172, 15.570 529.300, 17.829 531.345 C 20.256 533.542, 25.283 533.450, 27.345 531.171 C 29.562 528.721, 29.430 527.415, 26.777 525.557 C 23.794 523.467, 19.681 523.590, 17.655 525.829 M 19.250 526.662 C 17.288 527.454, 17.787 529.798, 20.072 530.523 C 22.893 531.418, 27 530.271, 27 528.588 C 27 526.413, 22.586 525.316, 19.250 526.662 M 81.839 533.825 L 80.236 538.836 83.868 538.282 C 90.306 537.301, 90.637 536.665, 86.857 532.541 L 83.441 528.814 81.839 533.825 M 673.074 531.269 C 673.115 531.946, 673.924 534.255, 674.871 536.400 L 676.594 540.301 679.917 536.104 C 681.745 533.796, 683.074 531.767, 682.871 531.595 C 682.667 531.423, 680.362 531.002, 677.750 530.660 C 674.302 530.209, 673.020 530.376, 673.074 531.269 M 141 536.340 C 141 537.665, 140.719 540.155, 140.376 541.871 L 139.752 544.992 144.941 542.836 L 150.130 540.679 147.315 538.326 C 142.121 533.984, 141 533.632, 141 536.340 M 323.973 538.101 C 323.365 540.356, 323.078 542.411, 323.333 542.667 C 323.589 542.922, 325.700 542.619, 328.025 541.993 L 332.252 540.855 328.930 537.428 C 327.103 535.542, 325.488 534, 325.342 534 C 325.196 534, 324.580 535.845, 323.973 538.101 M 24 536.077 C 24 536.707, 22.480 537.022, 20.330 536.837 C 15.322 536.406, 15.053 538.284, 19.674 541.424 C 24.431 544.657, 26 544.675, 26 541.500 C 26 539.944, 26.567 539, 27.500 539 C 28.325 539, 29 538.550, 29 538 C 29 537.450, 28.325 537, 27.500 537 C 26.675 537, 26 536.550, 26 536 C 26 535.450, 25.550 535, 25 535 C 24.450 535, 24 535.484, 24 536.077 M 19.497 538.995 C 19.835 539.542, 20.986 540.457, 22.056 541.030 C 23.685 541.902, 24 541.741, 24 540.035 C 24 538.518, 23.348 538, 21.441 538 C 19.999 538, 19.150 538.434, 19.497 538.995 M 16 547.809 C 16 548.254, 16.661 549.491, 17.468 550.559 C 18.797 552.315, 18.939 552.333, 18.968 550.750 C 18.994 549.321, 19.917 549, 24 549 C 26.750 549, 29 548.550, 29 548 C 29 547.436, 26.167 547, 22.500 547 C 18.925 547, 16 547.364, 16 547.809 M 383.250 548.780 C 380.913 549.678, 379 550.717, 379 551.088 C 379 552.023, 386.030 557.303, 386.565 556.769 C 387.322 556.012, 388.769 546.997, 388.121 547.074 C 387.779 547.114, 385.587 547.882, 383.250 548.780 M 16 555.941 C 16 558.109, 16.450 560.160, 17 560.500 C 17.585 560.862, 18 559.821, 18 557.992 C 18 555.210, 18.248 554.942, 20.250 555.559 C 21.488 555.941, 23.715 556.871, 25.200 557.627 C 28.352 559.229, 29 559.315, 29 558.131 C 29 557.417, 17.896 552, 16.434 552 C 16.195 552, 16 553.773, 16 555.941 M 897.679 561.816 L 893.881 565.707 898.469 566.991 C 900.993 567.698, 903.248 568.086, 903.480 567.853 C 903.712 567.621, 903.357 565.292, 902.690 562.678 L 901.478 557.926 897.679 561.816 M 19.556 561.910 C 19.174 562.527, 18.443 562.774, 17.931 562.457 C 16.260 561.425, 16.953 563.244, 18.750 564.608 C 20.396 565.858, 20.385 565.938, 18.559 565.968 C 16.643 566, 16.642 566.018, 18.548 567.411 C 19.609 568.188, 20.871 568.580, 21.351 568.283 C 21.831 567.987, 22.546 568.265, 22.940 568.903 C 23.441 569.714, 24.385 569.772, 26.078 569.095 C 27.819 568.399, 28.008 568.109, 26.750 568.063 C 25.788 568.029, 25 567.339, 25 566.531 C 25 565.562, 25.595 565.274, 26.750 565.685 C 28.245 566.216, 28.209 566.011, 26.500 564.280 C 24.996 562.755, 24.163 562.522, 23.140 563.340 C 22.225 564.071, 22.146 564.549, 22.897 564.799 C 24.214 565.238, 23.356 567, 21.824 567 C 21.243 567, 20.989 566.150, 21.261 565.111 C 21.882 562.737, 20.569 560.271, 19.556 561.910 M 625.307 565.500 C 624.741 567.975, 624.466 570, 624.696 570 C 624.926 570, 627.143 569.489, 629.622 568.865 L 634.130 567.730 630.869 564.365 C 629.075 562.514, 627.322 561, 626.972 561 C 626.623 561, 625.874 563.025, 625.307 565.500 M 784.168 572.833 C 782.540 578.269, 782.559 578.304, 786.750 577.533 C 792.138 576.543, 792.408 575.788, 788.670 572.165 L 785.336 568.934 784.168 572.833 M 840.634 579.128 C 836.487 581.315, 836.541 581.509, 842.250 584.922 L 846 587.163 846 582.082 C 846 579.287, 845.663 577.020, 845.250 577.044 C 844.837 577.069, 842.760 578.006, 840.634 579.128 M 14 579 C 14 579.596, 17.833 580, 23.500 580 C 29.167 580, 33 579.596, 33 579 C 33 578.404, 29.167 578, 23.500 578 C 17.833 578, 14 578.404, 14 579 M 690.750 582.068 C 688.688 583.157, 687 584.218, 687 584.425 C 687 585.134, 694.251 589.082, 694.710 588.623 C 695.633 587.700, 696.236 580.001, 695.382 580.044 C 694.897 580.069, 692.813 580.979, 690.750 582.068 M 297.973 589.101 C 297.365 591.356, 297.078 593.411, 297.333 593.667 C 297.589 593.922, 299.700 593.619, 302.025 592.993 L 306.252 591.855 302.930 588.428 C 301.103 586.542, 299.488 585, 299.342 585 C 299.196 585, 298.580 586.845, 297.973 589.101 M 26.278 588.166 C 24.125 590.320, 24.020 590.328, 22.029 588.526 C 20.906 587.510, 19.653 587.015, 19.244 587.426 C 18.835 587.836, 19.529 589.007, 20.788 590.027 L 23.075 591.881 18.865 592.191 C 16.550 592.361, 14.470 593.063, 14.244 593.750 C 13.940 594.677, 15.814 595, 21.500 595 C 27.202 595, 29.054 594.680, 28.726 593.750 C 28.483 593.063, 27.546 592.563, 26.642 592.639 C 24.356 592.832, 24.593 591.514, 27.148 589.817 C 28.330 589.033, 29.115 587.844, 28.892 587.175 C 28.623 586.369, 27.740 586.704, 26.278 588.166 M 425.667 587.881 C 422.137 590.208, 422.137 590.792, 425.667 593.119 C 429.666 595.755, 430 595.553, 430 590.500 C 430 585.447, 429.666 585.245, 425.667 587.881 M 105.495 588.750 C 105.885 589.712, 106.653 591.737, 107.200 593.250 C 107.748 594.763, 108.489 595.990, 108.848 595.979 C 109.207 595.967, 110.726 594.224, 112.224 592.105 L 114.948 588.253 111.224 587.638 C 105.376 586.671, 104.705 586.801, 105.495 588.750 M 337.098 591.730 C 338.213 594.331, 339.279 596.612, 339.466 596.800 C 339.654 596.987, 341.184 595.140, 342.866 592.695 L 345.924 588.249 342.212 587.636 C 334.823 586.414, 334.821 586.416, 337.098 591.730 M 242.085 595.631 C 241.495 597.759, 241.009 599.837, 241.006 600.250 C 240.997 601.352, 244.094 601.084, 247.309 599.705 L 250.117 598.500 246.638 595.131 L 243.160 591.762 242.085 595.631 M 741 592.966 C 741 594.446, 744.284 601, 745.026 601 C 745.386 601, 746.885 599.313, 748.357 597.250 L 751.032 593.500 748.266 592.868 C 743.915 591.875, 741 591.914, 741 592.966 M 489.523 597.145 C 489.921 598.440, 490.771 600.811, 491.411 602.412 L 492.575 605.325 495.812 601.237 C 497.593 598.988, 498.701 596.942, 498.275 596.690 C 497.849 596.437, 495.542 595.907, 493.149 595.510 C 488.918 594.810, 488.818 594.855, 489.523 597.145 M 19 598.929 C 19 601.377, 21.586 604, 24 604 C 26.414 604, 29 601.377, 29 598.929 C 29 596.241, 27.209 596.505, 26.820 599.250 C 26.585 600.898, 25.831 601.500, 24 601.500 C 22.169 601.500, 21.415 600.898, 21.180 599.250 C 20.791 596.505, 19 596.241, 19 598.929 M 75.722 601.304 C 74.134 605.962, 74.139 605.999, 76.311 605.882 C 77.515 605.817, 79.773 605.479, 81.328 605.132 L 84.156 604.500 80.739 600.554 L 77.322 596.608 75.722 601.304 M 563 599.480 C 563 600.838, 566.320 608, 566.949 608 C 567.351 608, 568.883 606.313, 570.352 604.250 L 573.024 600.500 570.762 599.850 C 568.007 599.058, 563 598.819, 563 599.480 M 20.571 607.571 C 18.729 609.414, 18.629 610.438, 20.035 613.066 C 22.124 616.968, 29 614.722, 29 610.137 C 29 608.494, 25.985 606, 24 606 C 22.979 606, 21.436 606.707, 20.571 607.571 M 21.363 609.497 C 21.017 610.398, 21.196 611.596, 21.761 612.161 C 23.391 613.791, 26.500 612.692, 26.500 610.486 C 26.500 607.943, 22.272 607.128, 21.363 609.497 M 933.200 616.027 L 935.385 621.284 938.677 617.392 C 940.488 615.251, 941.977 613.163, 941.985 612.750 C 941.993 612.337, 940.538 611.994, 938.750 611.986 C 936.962 611.979, 934.491 611.702, 933.258 611.372 L 931.016 610.771 933.200 616.027 M 376.575 616.579 C 374.416 617.369, 372.504 618.163, 372.326 618.341 C 372.147 618.520, 373.830 620.136, 376.067 621.933 C 378.303 623.730, 380.286 625.043, 380.473 624.850 C 381.316 623.982, 382.133 615.008, 381.364 615.070 C 380.889 615.109, 378.734 615.788, 376.575 616.579 M 19 617 C 19 617.550, 18.325 618, 17.500 618 C 16.675 618, 16 618.450, 16 619 C 16 619.550, 16.637 620, 17.417 620 C 18.196 620, 19.096 620.563, 19.417 621.250 C 19.883 622.250, 20.117 622.250, 20.583 621.250 C 20.904 620.563, 22.718 620, 24.615 620 C 27.970 620, 30.208 617.807, 28.487 616.207 C 28.068 615.818, 27.525 616.063, 27.280 616.750 C 26.752 618.227, 21 618.456, 21 617 C 21 616.450, 20.550 616, 20 616 C 19.450 616, 19 616.450, 19 617 M 607.690 622.327 L 603.881 623.500 607.804 627.320 L 611.727 631.140 612.864 626.627 C 613.489 624.145, 614 621.864, 614 621.557 C 614 620.751, 612.028 620.991, 607.690 622.327 M 21.203 625.993 C 19.292 629.352, 17.659 629.425, 17.180 626.172 C 16.755 623.278, 15 623.381, 15 626.300 C 15 631.525, 20.104 632.633, 22.533 627.936 C 24.393 624.340, 26.517 624.563, 26.461 628.348 C 26.439 629.806, 26.791 631, 27.242 631 C 28.762 631, 29.271 627.891, 28.153 625.436 C 26.602 622.032, 23.308 622.296, 21.203 625.993 M 199.721 630.750 C 199.424 633.362, 199.307 635.628, 199.459 635.785 C 199.612 635.942, 201.874 635.231, 204.486 634.205 L 209.235 632.339 205.390 629.170 C 203.275 627.426, 201.255 626, 200.902 626 C 200.549 626, 200.017 628.138, 199.721 630.750 M 20.229 639.171 C 18.571 640.829, 18.683 642.540, 20.571 644.429 C 22.744 646.601, 26.712 646.406, 27.965 644.066 C 29.280 641.608, 29.298 639, 28 639 C 27.450 639, 27 639.873, 27 640.941 C 27 644.036, 25.169 644.316, 24.818 641.276 C 24.472 638.271, 22.180 637.220, 20.229 639.171 M 744.674 643.459 C 742.570 644.707, 740.849 646.073, 740.851 646.493 C 740.853 646.913, 742.687 648.298, 744.927 649.571 L 749 651.884 749 646.442 C 749 643.449, 748.888 641.042, 748.750 641.094 C 748.612 641.146, 746.778 642.210, 744.674 643.459 M 19.737 650.885 C 19.084 652.615, 17.750 654.040, 16.625 654.207 C 15.543 654.368, 14.471 655.063, 14.245 655.750 C 13.942 656.671, 15.703 657, 20.948 657 C 26.649 657, 28.189 656.671, 28.699 655.343 C 29.716 652.692, 26.796 648.542, 23.659 648.178 C 21.352 647.910, 20.687 648.370, 19.737 650.885 M 518.704 648.671 C 518.416 649.135, 517.866 651.199, 517.479 653.258 C 516.871 656.500, 517.026 656.994, 518.639 656.955 C 519.662 656.930, 521.764 656.368, 523.309 655.705 L 526.117 654.500 522.671 651.163 C 520.776 649.328, 518.991 648.206, 518.704 648.671 M 21.667 650.667 C 20.007 652.326, 21.179 654, 24 654 C 25.898 654, 27 653.488, 27 652.607 C 27 650.626, 23.119 649.214, 21.667 650.667 M 836 650.853 C 836 652.462, 839.263 659, 840.067 659 C 840.922 659, 846.339 652.002, 845.851 651.528 C 845.658 651.340, 843.362 650.869, 840.750 650.480 C 837.580 650.008, 836 650.132, 836 650.853 M 419.153 655.630 L 414.805 658.229 419.046 660.638 C 421.378 661.963, 423.474 662.860, 423.702 662.631 C 423.931 662.402, 423.979 660.149, 423.809 657.623 L 423.500 653.031 419.153 655.630 M 99.557 657.250 C 99.938 658.487, 100.763 660.503, 101.391 661.729 C 102.527 663.944, 102.550 663.937, 105.319 660.467 C 106.850 658.548, 107.829 656.532, 107.493 655.988 C 107.157 655.445, 105.078 655, 102.874 655 C 99.178 655, 98.919 655.176, 99.557 657.250 M 330.539 658.750 C 332.850 664.286, 333.421 664.448, 336.480 660.438 C 339.717 656.194, 338.920 655.040, 332.737 655.015 L 328.973 655 330.539 658.750 M 695.760 660.294 C 693.703 661.507, 692.019 662.725, 692.017 663 C 692.016 663.275, 693.812 664.526, 696.008 665.780 L 700 668.060 700 663.030 C 700 660.263, 699.888 658.020, 699.750 658.044 C 699.612 658.069, 697.817 659.081, 695.760 660.294 M 20.571 660.571 C 18.729 662.414, 18.629 663.438, 20.035 666.066 C 22.124 669.968, 29 667.722, 29 663.137 C 29 661.494, 25.985 659, 24 659 C 22.979 659, 21.436 659.707, 20.571 660.571 M 640.695 663.127 C 639.763 665.569, 639 667.861, 639 668.221 C 639 668.970, 645.861 668.063, 647.775 667.060 C 648.693 666.580, 648.116 665.311, 645.721 662.540 L 642.391 658.688 640.695 663.127 M 236.720 660.663 C 235.690 662.368, 234.184 668.999, 234.831 668.985 C 235.199 668.976, 237.419 668.396, 239.764 667.694 L 244.027 666.419 240.626 663.123 C 238.756 661.310, 236.998 660.203, 236.720 660.663 M 21.363 662.497 C 21.017 663.398, 21.196 664.596, 21.761 665.161 C 23.391 666.791, 26.500 665.692, 26.500 663.486 C 26.500 660.943, 22.272 660.128, 21.363 662.497 M 483 662.663 C 483 664.576, 485.398 672, 486.015 672 C 487.254 672, 493.389 664.626, 492.396 664.330 C 489.281 663.401, 483 662.287, 483 662.663 M 14 672 C 14 672.550, 15.125 673, 16.500 673 C 18 673, 19 673.571, 19 674.429 C 19 678.929, 26.299 680.632, 28.153 676.564 C 30.190 672.094, 28.790 671, 21.031 671 C 17.010 671, 14 671.428, 14 672 M 21.190 674.750 C 21.403 675.854, 22.440 676.500, 24 676.500 C 25.560 676.500, 26.597 675.854, 26.810 674.750 C 27.073 673.383, 26.459 673, 24 673 C 21.541 673, 20.927 673.383, 21.190 674.750 M 22 682.471 C 18.386 683.694, 15.500 685.257, 15.500 685.992 C 15.500 686.733, 18.468 688.316, 22.250 689.592 C 26.062 690.878, 29 691.421, 29 690.841 C 29 690.275, 28.100 689.577, 27 689.290 C 24.581 688.657, 24.078 683, 26.441 683 C 27.810 683, 29.593 681.201, 28.850 680.569 C 28.658 680.405, 25.575 681.261, 22 682.471 M 20.250 684.820 C 17.375 685.228, 17.351 686.597, 20.206 687.344 C 22.750 688.009, 23.312 687.685, 22.838 685.828 C 22.649 685.086, 21.508 684.641, 20.250 684.820" stroke="none" fill="rgba(238, 247, 208, 0.3)" fill-rule="evenodd"/>
</svg>